<?xml version="1.0" standalone="yes"?>

<svg version="1.1" viewBox="0.0 0.0 151.0 50.0" fill="none" stroke="none" stroke-linecap="square" stroke-miterlimit="10" xmlns="http://www.w3.org/2000/svg" xmlns:xlink="http://www.w3.org/1999/xlink"><clipPath id="p.0"><path d="m0 0l151.0 0l0 50.0l-151.0 0l0 -50.0z" clip-rule="nonzero"></path></clipPath><g clip-path="url(#p.0)"><path fill="#000000" fill-opacity="0.0" d="m0 0l151.0 0l0 50.0l-151.0 0z" fill-rule="nonzero"></path><path fill="#ff0000" d="m54.895622 18.045973l0 0c0 -2.2903605 1.8567009 -4.147065 4.147064 -4.147065l84.2098 0c1.0998688 0 2.1546936 0.43692207 2.9324188 1.2146473c0.7777252 0.7777252 1.2146454 1.8325472 1.2146454 2.9324179l0 16.587759c0 2.2903633 -1.8567047 4.147064 -4.147064 4.147064l-84.2098 0l0 0c-2.2903633 0 -4.147064 -1.8567009 -4.147064 -4.147064z" fill-rule="nonzero"></path><path stroke="#ff0000" stroke-width="2.0" stroke-linejoin="round" stroke-linecap="butt" d="m54.895622 18.045973l0 0c0 -2.2903605 1.8567009 -4.147065 4.147064 -4.147065l84.2098 0c1.0998688 0 2.1546936 0.43692207 2.9324188 1.2146473c0.7777252 0.7777252 1.2146454 1.8325472 1.2146454 2.9324179l0 16.587759c0 2.2903633 -1.8567047 4.147064 -4.147064 4.147064l-84.2098 0l0 0c-2.2903633 0 -4.147064 -1.8567009 -4.147064 -4.147064z" fill-rule="nonzero"></path><path fill="#000000" fill-opacity="0.0" d="m-4.80801 0l166.23622 0l0 22.48819l-166.23622 0z" fill-rule="nonzero"></path><path fill="#000000" d="m13.19199 33.411247q-0.46875 0.765625 -1.625 1.265625q-1.15625 0.484375 -2.40625 0.484375q-2.375 0 -3.734375 -1.1875q-1.34375 -1.1875 -1.34375 -3.359375q0 -2.546875 1.90625 -3.984375q1.90625 -1.4375 5.421875 -1.4375q0.59375 0 1.421875 0.21875q0 -2.59375 -3.265625 -2.59375q-1.9375 0 -3.234375 0.640625l-0.734375 -2.640625q1.765625 -0.859375 4.203125 -0.859375q3.34375 0 4.90625 1.53125q1.5625 1.515625 1.5625 5.78125l0 3.125q0 2.921875 1.171875 3.671875q-0.421875 0.75 -0.953125 0.921875q-0.515625 0.171875 -1.1875 0.171875q-0.734375 0 -1.328125 -0.546875q-0.578125 -0.5625 -0.78125 -1.203125zm-0.328125 -5.421875q-0.875 -0.171875 -1.3125 -0.171875q-4.046875 0 -4.046875 2.640625q0 1.96875 2.28125 1.96875q3.078125 0 3.078125 -3.078125l0 -1.359375zm16.509766 6.890625l0 -8.46875q0 -1.875 -0.71875 -2.734375q-0.71875 -0.859375 -2.34375 -0.859375q-0.75 0 -1.609375 0.421875q-0.84375 0.421875 -1.328125 1.0625l0 10.578125l-3.421875 0l0 -14.640625l2.46875 0l0.625 1.359375q1.390625 -1.640625 4.109375 -1.640625q2.609375 0 4.125 1.578125q1.515625 1.5625 1.515625 4.359375l0 8.984375l-3.421875 0zm7.623047 -11.890625l-1.6875 0l0 -2.75l1.6875 0l0 -2.984375l3.421875 -1.25l0 4.234375l4.015625 0l0 2.75l-4.015625 0l0 6.40625q0 1.578125 0.484375 2.234375q0.5 0.640625 1.734375 0.640625q1.234375 0 2.296875 -0.671875l0 3.140625q-1.1875 0.421875 -3.390625 0.421875q-2.1875 0 -3.375 -1.234375q-1.171875 -1.25 -1.171875 -3.53125l0 -7.40625zm13.2734375 -8.421875q0.8125 0 1.390625 0.578125q0.59375 0.578125 0.59375 1.40625q0 0.8125 -0.59375 1.390625q-0.578125 0.578125 -1.390625 0.578125q-0.828125 0 -1.40625 -0.578125q-0.578125 -0.578125 -0.578125 -1.390625q0 -0.828125 0.578125 -1.40625q0.578125 -0.578125 1.40625 -0.578125zm-1.765625 20.3125l0 -11.84375l-1.875 0l0 -2.796875l5.328125 0l0 14.640625l-3.453125 0z" fill-rule="nonzero"></path><path fill="#ffffff" d="m68.13731 27.504997l0 7.375l-3.5625 0l0 -20.015625q3.5625 -0.15625 4.15625 -0.15625q4.75 0 6.9375 1.46875q2.203125 1.453125 2.203125 4.53125q0 6.890625 -8.125 6.890625q-0.59375 0 -1.609375 -0.09375zm0 -9.5625l0 6.40625q0.90625 0.09375 1.421875 0.09375q2.4375 0 3.546875 -0.8125q1.125 -0.8125 1.125 -2.640625q0 -3.125 -5.015625 -3.125q-0.5625 0 -1.078125 0.078125zm11.714844 9.578125q0 -3.34375 1.9375 -5.453125q1.9375 -2.109375 5.109375 -2.109375q3.328125 0 5.171875 2.03125q1.84375 2.015625 1.84375 5.53125q0 3.5 -1.875 5.578125q-1.875 2.0625 -5.140625 2.0625q-3.34375 0 -5.203125 -2.078125q-1.84375 -2.09375 -1.84375 -5.5625zm3.546875 0q0 4.84375 3.5 4.84375q1.59375 0 2.53125 -1.25q0.9375 -1.265625 0.9375 -3.59375q0 -4.765625 -3.46875 -4.765625q-1.609375 0 -2.5625 1.265625q-0.9375 1.25 -0.9375 3.5zm21.720703 -4.09375q-0.921875 -0.609375 -2.015625 -0.609375q-1.1875 0 -2.109375 1.078125q-0.921875 1.078125 -0.921875 2.640625l0 8.34375l-3.421875 0l0 -14.640625l3.421875 0l0 1.34375q1.4375 -1.625 3.8125 -1.625q1.75 0 2.6875 0.53125l-1.453125 2.9375zm12.916016 11.453125l0 -8.46875q0 -1.875 -0.71875 -2.734375q-0.71875 -0.859375 -2.34375 -0.859375q-0.75 0 -1.609375 0.421875q-0.84375 0.421875 -1.328125 1.0625l0 10.578125l-3.421875 0l0 -14.640625l2.46875 0l0.625 1.359375q1.390625 -1.640625 4.109375 -1.640625q2.609375 0 4.125 1.578125q1.515625 1.5625 1.515625 4.359375l0 8.984375l-3.421875 0zm6.154297 -7.359375q0 -3.34375 1.9375 -5.453125q1.9374924 -2.109375 5.1093674 -2.109375q3.328125 0 5.171875 2.03125q1.84375 2.015625 1.84375 5.53125q0 3.5 -1.875 5.578125q-1.875 2.0625 -5.140625 2.0625q-3.3437424 0 -5.2031174 -2.078125q-1.84375 -2.09375 -1.84375 -5.5625zm3.546875 0q0 4.84375 3.4999924 4.84375q1.59375 0 2.53125 -1.25q0.9375 -1.265625 0.9375 -3.59375q0 -4.765625 -3.46875 -4.765625q-1.609375 0 -2.5625 1.265625q-0.9374924 1.25 -0.9374924 3.5z" fill-rule="nonzero"></path></g></svg>

